<svg width="130" height="143" viewBox="0 0 130 143" fill="none" xmlns="http://www.w3.org/2000/svg">
<path d="M65 50.6382L89.6106 39.9456L28.6731 13.4353L7.66188 22.5725C6.60175 23.0315 5.60618 23.6503 4.70438 24.4106L65 50.647V50.6382ZM0.284378 32.0191C0.0948489 32.9565 -0.000502574 33.9135 1.99198e-06 34.8733V102.439C-0.000404948 105.089 0.729346 107.678 2.09507 109.872C3.4608 112.066 5.39982 113.765 7.66188 114.749L54.4375 135.1C56.55 136.019 58.7275 136.647 60.9375 136.991V58.3969L0.284378 32.0102V32.0191ZM69.0625 137C71.2903 136.652 73.4723 136.017 75.5625 135.109L122.338 114.758C124.601 113.773 126.541 112.073 127.907 109.877C129.273 107.681 130.002 105.091 130 102.439V34.8733C130 33.9013 129.902 32.9381 129.716 32.0102L69.0625 58.3969V136.991V137ZM125.296 24.4194L100.547 35.1915L39.6094 8.68112L54.4375 2.21259C61.2179 -0.737531 68.7821 -0.737531 75.5625 2.21259L122.338 22.5637C123.398 23.0228 124.394 23.6415 125.296 24.4018V24.4194Z" fill="white"/>
<path d="M101.942 60.9092C105.982 58.7835 109.181 58.2792 111.539 59.3964C113.934 60.4937 115.077 63.2176 114.97 67.5683C114.87 71.5777 113.622 75.3286 111.225 78.821C108.867 82.2508 105.78 84.9903 101.965 87.0394L101.563 91.9869L93.0672 96.4568L93.079 84.7055L96.4774 82.9175C99.3849 81.3878 101.604 79.8205 103.134 78.2154C104.703 76.5905 105.513 74.7117 105.566 72.579C105.603 71.0861 105.273 70.1019 104.577 69.6262C103.881 69.1506 102.891 69.2506 101.607 69.926C100.248 70.6412 99.1792 71.6453 98.4018 72.9383C97.6254 74.1887 97.2188 75.5604 97.1818 77.0533L88.0628 81.8509C88.0518 79.2888 88.582 76.6945 89.6533 74.0681C90.7624 71.4218 92.3512 68.9652 94.4198 66.6981C96.5273 64.3685 99.0347 62.4389 101.942 60.9092ZM97.0161 110.797C95.3169 111.691 93.9336 111.872 92.866 111.339C91.8373 110.743 91.3436 109.614 91.3848 107.951C91.4271 106.244 91.9912 104.537 93.077 102.829C94.2005 101.102 95.6119 99.7908 97.3111 98.8968C98.9725 98.0227 100.318 97.8834 101.346 98.4788C102.413 99.0543 102.925 100.195 102.883 101.901C102.841 103.565 102.259 105.26 101.135 106.988C100.051 108.653 98.6775 109.923 97.0161 110.797Z" fill="#4047C1"/>
<path d="M29.8539 63.8557C34.1958 65.2665 37.6555 67.5884 40.2329 70.8215C42.8509 74.0677 44.1421 77.8668 44.1064 82.2187C44.0735 86.2292 42.7898 88.9564 40.2554 90.4002C37.7619 91.8145 34.4658 91.8771 30.367 90.5882L30.0233 95.2891L20.8932 92.3225L20.6865 80.3201L24.3385 81.5067C27.4631 82.5219 29.8402 82.8879 31.47 82.6046C33.1404 82.3346 33.9843 81.1329 34.0018 78.9997C34.0141 77.5064 33.6382 76.2078 32.8742 75.104C32.1102 74.0002 31.0384 73.2241 29.6587 72.7759C28.1979 72.3012 27.058 72.38 26.2391 73.0123C25.4205 73.6019 25.0051 74.6434 24.9929 76.1366L15.1932 72.9525C15.1334 70.3236 15.6599 68.1418 16.7726 66.4072C17.926 64.6858 19.6032 63.5837 21.8042 63.1011C24.0462 62.589 26.7294 62.8405 29.8539 63.8557ZM25.4435 110.485C23.6174 109.892 22.1206 108.849 20.9529 107.357C19.8262 105.836 19.2696 104.244 19.2833 102.58C19.2973 100.873 19.8771 99.6285 21.0227 98.8457C22.209 98.0761 23.7151 97.9879 25.5411 98.5812C27.3266 99.1614 28.7827 100.212 29.9094 101.733C31.0767 103.267 31.6534 104.888 31.6394 106.595C31.6257 108.258 31.0258 109.475 29.8396 110.245C28.6943 110.985 27.2289 111.065 25.4435 110.485Z" fill="#4047C1"/>
</svg>
