<svg width="41" height="46" viewBox="0 0 41 46" fill="none" xmlns="http://www.w3.org/2000/svg">
<path d="M20.5 15.9705L28.2618 12.5982L9.04306 4.23729L2.41644 7.11903C2.08209 7.26379 1.7681 7.45893 1.48369 7.69872L20.5 15.9733V15.9705ZM0.0896884 10.0983C0.0299139 10.394 -0.000158504 10.6958 6.28239e-07 10.9985V32.3078C-0.000127714 33.1435 0.230025 33.96 0.660754 34.652C1.09148 35.344 1.70302 35.8798 2.41644 36.1901L17.1688 42.6085C17.835 42.8983 18.5218 43.0962 19.2188 43.2049V18.4175L0.0896884 10.0955V10.0983ZM21.7812 43.2077C22.4839 43.0978 23.172 42.8976 23.8313 42.6113L38.5836 36.1929C39.2974 35.8824 39.9092 35.3462 40.34 34.6536C40.7707 33.9611 41.0006 33.1439 41 32.3078V10.9985C41 10.6919 40.9692 10.3882 40.9103 10.0955L21.7812 18.4175V43.2049V43.2077ZM39.5163 7.70151L31.7109 11.0988L12.4922 2.73789L17.1688 0.697818C19.3072 -0.232606 21.6928 -0.232606 23.8313 0.697818L38.5836 7.11624C38.9179 7.26103 39.2319 7.45617 39.5163 7.69594V7.70151Z" fill="#4B5EFC"/>
<path d="M32.1059 19.2926C33.3685 18.6283 34.3681 18.4708 35.1048 18.8199C35.8533 19.1628 36.2107 20.014 36.177 21.3736C36.1459 22.6265 35.7558 23.7987 35.0067 24.8901C34.2698 25.9619 33.3052 26.818 32.1131 27.4583L31.9874 29.0044L29.3325 30.4013L29.3362 26.729L30.3981 26.1702C31.3067 25.6922 32.0002 25.2024 32.4784 24.7008C32.9685 24.193 33.2218 23.6059 33.2383 22.9394C33.2499 22.4729 33.1469 22.1653 32.9293 22.0167C32.7117 21.8681 32.4023 21.8993 32.0011 22.1104C31.5763 22.3339 31.2424 22.6477 30.9995 23.0517C30.7569 23.4425 30.6298 23.8711 30.6183 24.3376L27.7686 25.8369C27.7651 25.0363 27.9308 24.2255 28.2656 23.4048C28.6122 22.5778 29.1087 21.8101 29.7551 21.1017C30.4137 20.3737 31.1973 19.7706 32.1059 19.2926ZM30.5665 34.8826C30.0355 35.162 29.6032 35.2184 29.2696 35.0519C28.9481 34.8658 28.7938 34.5129 28.8067 33.993C28.8199 33.4599 28.9962 32.9264 29.3355 32.3927C29.6866 31.8528 30.1277 31.4431 30.6587 31.1638C31.1779 30.8906 31.5982 30.8471 31.9197 31.0331C32.2529 31.213 32.413 31.5695 32.3998 32.1026C32.3869 32.6225 32.2049 33.1524 31.8538 33.6923C31.5148 34.2127 31.0857 34.6095 30.5665 34.8826Z" fill="white"/>
<path d="M9.36807 20.1837C10.7249 20.6246 11.8061 21.3502 12.6115 22.3605C13.4296 23.375 13.8331 24.5622 13.822 25.9221C13.8117 27.1754 13.4105 28.0277 12.6185 28.4789C11.8393 28.9208 10.8093 28.9404 9.52841 28.5376L9.421 30.0067L6.56783 29.0796L6.50324 25.3288L7.6445 25.6997C8.62092 26.0169 9.36378 26.1313 9.87309 26.0428C10.3951 25.9584 10.6588 25.5829 10.6643 24.9162C10.6681 24.4496 10.5506 24.0438 10.3119 23.6988C10.0732 23.3539 9.73821 23.1114 9.30706 22.9713C8.85055 22.8229 8.49435 22.8476 8.23843 23.0452C7.98263 23.2294 7.85282 23.5549 7.84899 24.0215L4.78659 23.0265C4.7679 22.2049 4.93242 21.5231 5.28016 20.9811C5.64058 20.4431 6.1647 20.0987 6.85253 19.9479C7.55314 19.7879 8.39165 19.8665 9.36807 20.1837ZM7.9898 34.7553C7.41916 34.5699 6.9514 34.2441 6.5865 33.778C6.23439 33.3026 6.06047 32.805 6.06474 32.285C6.06911 31.7517 6.25031 31.3627 6.60832 31.1181C6.97901 30.8776 7.44968 30.85 8.02031 31.0354C8.57827 31.2167 9.0333 31.5451 9.3854 32.0204C9.75019 32.4999 9.9304 33.0063 9.92603 33.5396C9.92176 34.0596 9.73428 34.4398 9.36358 34.6803C9.00568 34.9116 8.54775 34.9366 7.9898 34.7553Z" fill="white"/>
</svg>
